<svg version="1.1" xmlns="http://www.w3.org/2000/svg" viewBox="0 0 1825.8102210037744 741.820520187259" width="5477.430663011323" height="2225.4615605617773" filter="invert(93%) hue-rotate(180deg)">
  <!-- svg-source:excalidraw -->
  
  <defs>
    <style class="style-fonts">
      @font-face {
        font-family: "Virgil";
        src: url("https://excalidraw.com/Virgil.woff2");
      }
      @font-face {
        font-family: "Cascadia";
        src: url("https://excalidraw.com/Cascadia.woff2");
      }
      @font-face {
        font-family: "Assistant";
        src: url("https://excalidraw.com/Assistant-Regular.woff2");
      }
    </style>
    
  </defs>
  <rect x="0" y="0" width="1825.8102210037744" height="741.820520187259" fill="#ffffff"></rect><g stroke-linecap="round" transform="translate(765.9405972248496 61.13974791272949) rotate(0 469.5321070729309 293.906205235598)"><path d="M0 0 L939.06 0 L939.06 587.81 L0 587.81" stroke="none" stroke-width="0" fill="#ffffff"></path><path d="M0 0 C339.16 0, 678.33 0, 939.06 0 M0 0 C210.56 0, 421.11 0, 939.06 0 M939.06 0 C939.06 203.97, 939.06 407.94, 939.06 587.81 M939.06 0 C939.06 147.33, 939.06 294.65, 939.06 587.81 M939.06 587.81 C598.5 587.81, 257.94 587.81, 0 587.81 M939.06 587.81 C659.36 587.81, 379.65 587.81, 0 587.81 M0 587.81 C0 421.35, 0 254.88, 0 0 M0 587.81 C0 394.05, 0 200.29, 0 0" stroke="#1e1e1e" stroke-width="4" fill="none"></path></g><g transform="translate(1160.5635921895885 87.20767624574819) rotate(0 73.8499984741211 21.600000000000023)"><text x="0" y="0" font-family="Cascadia, Segoe UI Emoji" font-size="36px" fill="#1e1e1e" text-anchor="start" style="white-space: pre;" direction="ltr" dominant-baseline="text-before-edge">Cluster</text></g><g stroke-linecap="round" transform="translate(788.0244520948306 156.77269825294093) rotate(0 134.66248767328761 205.36029370176368)"><path d="M0 0 L269.32 0 L269.32 410.72 L0 410.72" stroke="none" stroke-width="0" fill="#ffffff"></path><path d="M0 0 C95.26 0, 190.52 0, 269.32 0 M0 0 C104.88 0, 209.77 0, 269.32 0 M269.32 0 C269.32 101.16, 269.32 202.32, 269.32 410.72 M269.32 0 C269.32 145.75, 269.32 291.5, 269.32 410.72 M269.32 410.72 C205.8 410.72, 142.28 410.72, 0 410.72 M269.32 410.72 C163.89 410.72, 58.45 410.72, 0 410.72 M0 410.72 C0 268.41, 0 126.1, 0 0 M0 410.72 C0 256.5, 0 102.27, 0 0" stroke="#1e1e1e" stroke-width="4" fill="none"></path></g><g stroke-linecap="round"><g transform="translate(788.0244520948306 380.64908400978175) rotate(0 134.66248767328761 0)"><path d="M0 0 C72.96 0, 145.92 0, 269.32 0 M0 0 C105.72 0, 211.44 0, 269.32 0" stroke="#1e1e1e" stroke-width="4" fill="none"></path></g></g><mask></mask><g stroke-linecap="round" transform="translate(808.223825245824 394.1153327771103) rotate(0 54.70663561727292 26.600000000000023)"><path d="M0 0 L109.41 0 L109.41 53.2 L0 53.2" stroke="none" stroke-width="0" fill="#ffffff"></path><path d="M0 0 C23.37 0, 46.73 0, 109.41 0 M0 0 C32.88 0, 65.76 0, 109.41 0 M109.41 0 C109.41 19.4, 109.41 38.81, 109.41 53.2 M109.41 0 C109.41 17.97, 109.41 35.94, 109.41 53.2 M109.41 53.2 C72.77 53.2, 36.13 53.2, 0 53.2 M109.41 53.2 C76.81 53.2, 44.21 53.2, 0 53.2 M0 53.2 C0 38.28, 0 23.36, 0 0 M0 53.2 C0 36.69, 0 20.18, 0 0" stroke="#1e1e1e" stroke-width="4" fill="none"></path></g><g transform="translate(831.2804612445668 399.1153327771103) rotate(0 31.649999618530273 21.600000000000023)"><text x="31.649999618530273" y="0" font-family="Cascadia, Segoe UI Emoji" font-size="36px" fill="#1e1e1e" text-anchor="middle" style="white-space: pre;" direction="ltr" dominant-baseline="text-before-edge">GPU</text></g><g stroke-linecap="round" transform="translate(931.9449857956563 394.4478303117678) rotate(0 54.70663561727292 26.600000000000023)"><path d="M0 0 L109.41 0 L109.41 53.2 L0 53.2" stroke="none" stroke-width="0" fill="#ffffff"></path><path d="M0 0 C37.81 0, 75.62 0, 109.41 0 M0 0 C26.24 0, 52.48 0, 109.41 0 M109.41 0 C109.41 14.44, 109.41 28.88, 109.41 53.2 M109.41 0 C109.41 18.42, 109.41 36.84, 109.41 53.2 M109.41 53.2 C72.78 53.2, 36.15 53.2, 0 53.2 M109.41 53.2 C82.76 53.2, 56.1 53.2, 0 53.2 M0 53.2 C0 34.58, 0 15.95, 0 0 M0 53.2 C0 41.45, 0 29.7, 0 0" stroke="#1e1e1e" stroke-width="4" fill="none"></path></g><g transform="translate(955.0016217943992 399.4478303117678) rotate(0 31.649999618530273 21.600000000000023)"><text x="31.649999618530273" y="0" font-family="Cascadia, Segoe UI Emoji" font-size="36px" fill="#1e1e1e" text-anchor="middle" style="white-space: pre;" direction="ltr" dominant-baseline="text-before-edge">CPU</text></g><g transform="translate(840.2061660682295 463.12985770967043) rotate(0 84.4000015258789 43.200000000000045)"><text x="0" y="0" font-family="Cascadia, Segoe UI Emoji" font-size="36px" fill="#1e1e1e" text-anchor="start" style="white-space: pre;" direction="ltr" dominant-baseline="text-before-edge">Physical</text><text x="0" y="43.199999999999996" font-family="Cascadia, Segoe UI Emoji" font-size="36px" fill="#1e1e1e" text-anchor="start" style="white-space: pre;" direction="ltr" dominant-baseline="text-before-edge">Hardware</text></g><g stroke-linecap="round" transform="translate(809.681443590526 209.8279053529766) rotate(0 108.44152567141077 76.58928986418243)"><path d="M0 0 L216.88 0 L216.88 153.18 L0 153.18" stroke="none" stroke-width="0" fill="#ffffff"></path><path d="M0 0 C57.65 0, 115.3 0, 216.88 0 M0 0 C64.97 0, 129.94 0, 216.88 0 M216.88 0 C216.88 35.92, 216.88 71.84, 216.88 153.18 M216.88 0 C216.88 37.87, 216.88 75.75, 216.88 153.18 M216.88 153.18 C142.27 153.18, 67.66 153.18, 0 153.18 M216.88 153.18 C166.48 153.18, 116.08 153.18, 0 153.18 M0 153.18 C0 117.08, 0 80.98, 0 0 M0 153.18 C0 116.57, 0 79.96, 0 0" stroke="#1e1e1e" stroke-width="4" fill="none"></path></g><g transform="translate(885.1729684989971 269.61719521715895) rotate(0 32.95000076293945 16.799999999999955)"><text x="32.95000076293945" y="0" font-family="Cascadia, Segoe UI Emoji" font-size="28px" fill="#1e1e1e" text-anchor="middle" style="white-space: pre;" direction="ltr" dominant-baseline="text-before-edge">Job1</text></g><g transform="translate(871.921395029435 585.8113527653486) rotate(0 42.20000076293945 21.600000000000023)"><text x="0" y="0" font-family="Cascadia, Segoe UI Emoji" font-size="36px" fill="#1e1e1e" text-anchor="start" style="white-space: pre;" direction="ltr" dominant-baseline="text-before-edge">Node</text></g><g stroke-linecap="round" transform="translate(1099.7766905745063 155.89321058109113) rotate(0 134.66248767328761 205.36029370176368)"><path d="M0 0 L269.32 0 L269.32 410.72 L0 410.72" stroke="none" stroke-width="0" fill="#ffffff"></path><path d="M0 0 C63.44 0, 126.88 0, 269.32 0 M0 0 C106.16 0, 212.32 0, 269.32 0 M269.32 0 C269.32 152.94, 269.32 305.89, 269.32 410.72 M269.32 0 C269.32 157.89, 269.32 315.79, 269.32 410.72 M269.32 410.72 C174.67 410.72, 80.02 410.72, 0 410.72 M269.32 410.72 C174.93 410.72, 80.53 410.72, 0 410.72 M0 410.72 C0 252.64, 0 94.57, 0 0 M0 410.72 C0 318.21, 0 225.7, 0 0" stroke="#1e1e1e" stroke-width="4" fill="none"></path></g><g stroke-linecap="round"><g transform="translate(1099.7766905745063 379.76959633793194) rotate(0 134.66248767328761 0)"><path d="M0 0 C70.28 0, 140.56 0, 269.32 0 M0 0 C59.72 0, 119.45 0, 269.32 0" stroke="#1e1e1e" stroke-width="4" fill="none"></path></g></g><mask></mask><g stroke-linecap="round" transform="translate(1119.9760637254992 393.2358451052605) rotate(0 54.70663561727292 26.600000000000023)"><path d="M0 0 L109.41 0 L109.41 53.2 L0 53.2" stroke="none" stroke-width="0" fill="#ffffff"></path><path d="M0 0 C35.27 0, 70.54 0, 109.41 0 M0 0 C38.38 0, 76.76 0, 109.41 0 M109.41 0 C109.41 19.83, 109.41 39.66, 109.41 53.2 M109.41 0 C109.41 18.42, 109.41 36.83, 109.41 53.2 M109.41 53.2 C77.32 53.2, 45.23 53.2, 0 53.2 M109.41 53.2 C77.86 53.2, 46.3 53.2, 0 53.2 M0 53.2 C0 33.85, 0 14.49, 0 0 M0 53.2 C0 39.29, 0 25.37, 0 0" stroke="#1e1e1e" stroke-width="4" fill="none"></path></g><g transform="translate(1143.032699724242 398.2358451052605) rotate(0 31.649999618530273 21.600000000000023)"><text x="31.649999618530273" y="0" font-family="Cascadia, Segoe UI Emoji" font-size="36px" fill="#1e1e1e" text-anchor="middle" style="white-space: pre;" direction="ltr" dominant-baseline="text-before-edge">GPU</text></g><g stroke-linecap="round" transform="translate(1243.6972242753316 393.568342639918) rotate(0 54.70663561727292 26.600000000000023)"><path d="M0 0 L109.41 0 L109.41 53.2 L0 53.2" stroke="none" stroke-width="0" fill="#ffffff"></path><path d="M0 0 C23.88 0, 47.77 0, 109.41 0 M0 0 C38.19 0, 76.38 0, 109.41 0 M109.41 0 C109.41 14.04, 109.41 28.08, 109.41 53.2 M109.41 0 C109.41 11.53, 109.41 23.06, 109.41 53.2 M109.41 53.2 C84.38 53.2, 59.35 53.2, 0 53.2 M109.41 53.2 C82.75 53.2, 56.09 53.2, 0 53.2 M0 53.2 C0 35.36, 0 17.53, 0 0 M0 53.2 C0 32.45, 0 11.69, 0 0" stroke="#1e1e1e" stroke-width="4" fill="none"></path></g><g transform="translate(1266.7538602740744 398.568342639918) rotate(0 31.649999618530273 21.600000000000023)"><text x="31.649999618530273" y="0" font-family="Cascadia, Segoe UI Emoji" font-size="36px" fill="#1e1e1e" text-anchor="middle" style="white-space: pre;" direction="ltr" dominant-baseline="text-before-edge">CPU</text></g><g transform="translate(1151.9584045479048 462.25037003782063) rotate(0 84.4000015258789 43.200000000000045)"><text x="0" y="0" font-family="Cascadia, Segoe UI Emoji" font-size="36px" fill="#1e1e1e" text-anchor="start" style="white-space: pre;" direction="ltr" dominant-baseline="text-before-edge">Physical</text><text x="0" y="43.199999999999996" font-family="Cascadia, Segoe UI Emoji" font-size="36px" fill="#1e1e1e" text-anchor="start" style="white-space: pre;" direction="ltr" dominant-baseline="text-before-edge">Hardware</text></g><g transform="translate(1183.6736335091098 584.9318650934988) rotate(0 42.20000076293945 21.600000000000023)"><text x="0" y="0" font-family="Cascadia, Segoe UI Emoji" font-size="36px" fill="#1e1e1e" text-anchor="start" style="white-space: pre;" direction="ltr" dominant-baseline="text-before-edge">Node</text></g><g stroke-linecap="round" transform="translate(1409.8547944593918 158.173196639068) rotate(0 134.66248767328761 205.36029370176368)"><path d="M0 0 L269.32 0 L269.32 410.72 L0 410.72" stroke="none" stroke-width="0" fill="#ffffff"></path><path d="M0 0 C91.06 0, 182.13 0, 269.32 0 M0 0 C61.61 0, 123.21 0, 269.32 0 M269.32 0 C269.32 88.3, 269.32 176.61, 269.32 410.72 M269.32 0 C269.32 161.92, 269.32 323.85, 269.32 410.72 M269.32 410.72 C196.02 410.72, 122.71 410.72, 0 410.72 M269.32 410.72 C165.46 410.72, 61.59 410.72, 0 410.72 M0 410.72 C0 288.21, 0 165.71, 0 0 M0 410.72 C0 253.22, 0 95.71, 0 0" stroke="#1e1e1e" stroke-width="4" fill="none"></path></g><g stroke-linecap="round"><g transform="translate(1409.8547944593918 382.0495823959086) rotate(0 134.66248767328761 0)"><path d="M0 0 C103.09 0, 206.18 0, 269.32 0 M0 0 C93.67 0, 187.34 0, 269.32 0" stroke="#1e1e1e" stroke-width="4" fill="none"></path></g></g><mask></mask><g stroke-linecap="round" transform="translate(1430.0541676103855 395.5158311632372) rotate(0 54.70663561727292 26.600000000000023)"><path d="M0 0 L109.41 0 L109.41 53.2 L0 53.2" stroke="none" stroke-width="0" fill="#ffffff"></path><path d="M0 0 C38.84 0, 77.67 0, 109.41 0 M0 0 C25.52 0, 51.03 0, 109.41 0 M109.41 0 C109.41 16.04, 109.41 32.08, 109.41 53.2 M109.41 0 C109.41 11.81, 109.41 23.62, 109.41 53.2 M109.41 53.2 C74.82 53.2, 40.24 53.2, 0 53.2 M109.41 53.2 C82.41 53.2, 55.41 53.2, 0 53.2 M0 53.2 C0 33.19, 0 13.18, 0 0 M0 53.2 C0 32.96, 0 12.71, 0 0" stroke="#1e1e1e" stroke-width="4" fill="none"></path></g><g transform="translate(1453.1108036091284 400.5158311632372) rotate(0 31.649999618530273 21.600000000000023)"><text x="31.649999618530273" y="0" font-family="Cascadia, Segoe UI Emoji" font-size="36px" fill="#1e1e1e" text-anchor="middle" style="white-space: pre;" direction="ltr" dominant-baseline="text-before-edge">GPU</text></g><g stroke-linecap="round" transform="translate(1553.775328160218 395.8483286978949) rotate(0 54.70663561727292 26.600000000000023)"><path d="M0 0 L109.41 0 L109.41 53.2 L0 53.2" stroke="none" stroke-width="0" fill="#ffffff"></path><path d="M0 0 C28.2 0, 56.4 0, 109.41 0 M0 0 C29.52 0, 59.04 0, 109.41 0 M109.41 0 C109.41 16.02, 109.41 32.04, 109.41 53.2 M109.41 0 C109.41 13.94, 109.41 27.89, 109.41 53.2 M109.41 53.2 C80.2 53.2, 50.99 53.2, 0 53.2 M109.41 53.2 C79.71 53.2, 50.01 53.2, 0 53.2 M0 53.2 C0 40.11, 0 27.02, 0 0 M0 53.2 C0 35.19, 0 17.19, 0 0" stroke="#1e1e1e" stroke-width="4" fill="none"></path></g><g transform="translate(1576.8319641589608 400.8483286978949) rotate(0 31.649999618530273 21.600000000000023)"><text x="31.649999618530273" y="0" font-family="Cascadia, Segoe UI Emoji" font-size="36px" fill="#1e1e1e" text-anchor="middle" style="white-space: pre;" direction="ltr" dominant-baseline="text-before-edge">CPU</text></g><g transform="translate(1462.0365084327912 464.5303560957973) rotate(0 84.4000015258789 43.200000000000045)"><text x="0" y="0" font-family="Cascadia, Segoe UI Emoji" font-size="36px" fill="#1e1e1e" text-anchor="start" style="white-space: pre;" direction="ltr" dominant-baseline="text-before-edge">Physical</text><text x="0" y="43.199999999999996" font-family="Cascadia, Segoe UI Emoji" font-size="36px" fill="#1e1e1e" text-anchor="start" style="white-space: pre;" direction="ltr" dominant-baseline="text-before-edge">Hardware</text></g><g transform="translate(1493.751737393996 587.2118511514757) rotate(0 42.20000076293945 21.600000000000023)"><text x="0" y="0" font-family="Cascadia, Segoe UI Emoji" font-size="36px" fill="#1e1e1e" text-anchor="start" style="white-space: pre;" direction="ltr" dominant-baseline="text-before-edge">Node</text></g><g transform="translate(812.5492134535832 165.0503157599071) rotate(0 24.712499618530273 16.799999999999955)"><text x="0" y="0" font-family="Cascadia, Segoe UI Emoji" font-size="28px" fill="#1e1e1e" text-anchor="start" style="white-space: pre;" direction="ltr" dominant-baseline="text-before-edge">Pod</text></g><g stroke-linecap="round" transform="translate(1121.3984932943788 207.66188642104908) rotate(0 108.44152567141077 76.58928986418243)"><path d="M0 0 L216.88 0 L216.88 153.18 L0 153.18" stroke="none" stroke-width="0" fill="#ffffff"></path><path d="M0 0 C60.09 0, 120.18 0, 216.88 0 M0 0 C45.55 0, 91.09 0, 216.88 0 M216.88 0 C216.88 46.18, 216.88 92.37, 216.88 153.18 M216.88 0 C216.88 61.24, 216.88 122.48, 216.88 153.18 M216.88 153.18 C170.34 153.18, 123.79 153.18, 0 153.18 M216.88 153.18 C142.01 153.18, 67.13 153.18, 0 153.18 M0 153.18 C0 96.59, 0 40.01, 0 0 M0 153.18 C0 102.46, 0 51.75, 0 0" stroke="#1e1e1e" stroke-width="4" fill="none"></path></g><g transform="translate(1196.8900182028503 267.45117628523144) rotate(0 32.95000076293945 16.799999999999955)"><text x="32.95000076293945" y="0" font-family="Cascadia, Segoe UI Emoji" font-size="28px" fill="#1e1e1e" text-anchor="middle" style="white-space: pre;" direction="ltr" dominant-baseline="text-before-edge">Job2</text></g><g transform="translate(1124.266263157435 162.8842968279796) rotate(0 24.712499618530273 16.799999999999955)"><text x="0" y="0" font-family="Cascadia, Segoe UI Emoji" font-size="28px" fill="#1e1e1e" text-anchor="start" style="white-space: pre;" direction="ltr" dominant-baseline="text-before-edge">Pod</text></g><g transform="translate(1472.2435771745525 251.9534863468284) rotate(0 74.55000305175781 25.483255771372228)"><text x="74.55000305175781" y="0" font-family="Cascadia, Segoe UI Emoji" font-size="21.236046476143514px" fill="#1e1e1e" text-anchor="middle" style="white-space: pre;" direction="ltr" dominant-baseline="text-before-edge">No Pod - </text><text x="74.55000305175781" y="25.483255771372217" font-family="Cascadia, Segoe UI Emoji" font-size="21.236046476143514px" fill="#1e1e1e" text-anchor="middle" style="white-space: pre;" direction="ltr" dominant-baseline="text-before-edge">Node is Free</text></g><g stroke-linecap="round" transform="translate(10 52.51800169725698) rotate(0 161.31023094591706 48.5)"><path d="M0 0 L322.62 0 L322.62 97 L0 97" stroke="none" stroke-width="0" fill="#ffffff"></path><path d="M0 0 C86.46 0, 172.91 0, 322.62 0 M0 0 C97.03 0, 194.06 0, 322.62 0 M322.62 0 C322.62 28.2, 322.62 56.4, 322.62 97 M322.62 0 C322.62 38.54, 322.62 77.08, 322.62 97 M322.62 97 C209.53 97, 96.45 97, 0 97 M322.62 97 C254.92 97, 187.22 97, 0 97 M0 97 C0 66.06, 0 35.12, 0 0 M0 97 C0 72.01, 0 47.01, 0 0" stroke="#1e1e1e" stroke-width="4" fill="none"></path></g><g transform="translate(31.27272484240143 84.21800169725702) rotate(0 140.03750610351562 16.799999999999955)"><text x="140.03750610351562" y="0" font-family="Cascadia, Segoe UI Emoji" font-size="28px" fill="#1e1e1e" text-anchor="middle" style="white-space: pre;" direction="ltr" dominant-baseline="text-before-edge">Kubernetes Client</text></g><g stroke-linecap="round"><g transform="translate(336.59758647383046 103.19756501884945) rotate(0 213.87646331248789 0)"><path d="M0 0 C117.09 0, 234.19 0, 427.75 0 M0 0 C110.04 0, 220.07 0, 427.75 0" stroke="#1e1e1e" stroke-width="4" fill="none"></path></g></g><mask></mask><g transform="translate(400.75143807708946 10) rotate(0 131.8000030517578 33.60000000000002)"><text x="131.8000030517578" y="0" font-family="Cascadia, Segoe UI Emoji" font-size="28px" fill="#1e1e1e" text-anchor="middle" style="white-space: pre;" direction="ltr" dominant-baseline="text-before-edge">Interact Through</text><text x="131.8000030517578" y="33.6" font-family="Cascadia, Segoe UI Emoji" font-size="28px" fill="#1e1e1e" text-anchor="middle" style="white-space: pre;" direction="ltr" dominant-baseline="text-before-edge">Client Libraries</text></g><g stroke-linecap="round" transform="translate(647.2561365366616 672.0784913290224) rotate(0 584.2770422335564 29.871014429118304)"><path d="M0 0 L1168.55 0 L1168.55 59.74 L0 59.74" stroke="none" stroke-width="0" fill="#ffffff"></path><path d="M0 0 C293.7 0, 587.39 0, 1168.55 0 M0 0 C387.83 0, 775.66 0, 1168.55 0 M1168.55 0 C1168.55 14.95, 1168.55 29.89, 1168.55 59.74 M1168.55 0 C1168.55 22.25, 1168.55 44.5, 1168.55 59.74 M1168.55 59.74 C726.94 59.74, 285.32 59.74, 0 59.74 M1168.55 59.74 C745.94 59.74, 323.33 59.74, 0 59.74 M0 59.74 C0 44.74, 0 29.74, 0 0 M0 59.74 C0 47.43, 0 35.12, 0 0" stroke="#1e1e1e" stroke-width="4" fill="none"></path></g><g transform="translate(936.1331848737334 680.3495057581408) rotate(0 295.3999938964844 21.600000000000023)"><text x="295.3999938964844" y="0" font-family="Cascadia, Segoe UI Emoji" font-size="36px" fill="#1e1e1e" text-anchor="middle" style="white-space: pre;" direction="ltr" dominant-baseline="text-before-edge">Google Kubernetes Engine GKE</text></g></svg>